<?xml version="1.0" encoding="UTF-8"?>
<svg width="17px" height="16px" viewBox="0 0 17 16" version="1.1" xmlns="http://www.w3.org/2000/svg" xmlns:xlink="http://www.w3.org/1999/xlink">
    <title>D1F3EFE0-BCF9-45B2-BB14-DC474091F00C</title>
    <g id="Page-1" stroke="none" stroke-width="1" fill="none" fill-rule="evenodd">
        <g id="list" transform="translate(-1775.000000, -51.000000)" fill="#000000" fill-rule="nonzero">
            <g id="noun-cart-1431257" transform="translate(1775.681171, 51.375873)">
                <path d="M7.94067744,13.9427503 C7.94067744,13.496854 7.76362318,13.0691978 7.44822872,12.7539518 C7.13296339,12.4385606 6.70532652,12.2615031 6.25943025,12.2615031 C5.81353397,12.2615031 5.38587773,12.4385573 5.07050264,12.7539518 C4.75523732,13.0692171 4.57805392,13.496854 4.57805392,13.9427503 C4.57805392,14.3886466 4.75523409,14.8163028 5.07050264,15.1316779 C5.38589387,15.4469432 5.81353397,15.6241266 6.25943025,15.6241266 C6.70532652,15.6241266 7.13298276,15.4469464 7.44822872,15.1316779 C7.76361995,14.8162866 7.94067744,14.3886466 7.94067744,13.9427503 L7.94067744,13.9427503 Z M5.30113419,13.9427503 L5.30126029,13.9427503 C5.30126029,13.6886456 5.40214545,13.444878 5.58184695,13.2651894 C5.76154844,13.0854879 6.00530637,12.9846027 6.25940784,12.9846027 C6.51351255,12.9846027 6.75715102,13.0854879 6.9368396,13.2651894 C7.1165411,13.4448909 7.21755216,13.6886488 7.21755216,13.9427503 C7.21755216,14.1968518 7.1165411,14.4406226 6.9368396,14.6203112 C6.75713811,14.8000127 6.51350932,14.9008978 6.25940784,14.9008978 C6.00214906,14.9058159 5.75372298,14.8069471 5.57009585,14.626742 C5.38648485,14.4465369 5.28307836,14.1999897 5.28307836,13.9427244 L5.30113419,13.9427503 Z" id="Shape"></path>
                <path d="M14.1054872,13.9427503 C14.1054872,13.496854 13.9283071,13.0691978 13.6130385,12.7539518 C13.2977732,12.4385606 12.8701363,12.2615031 12.42424,12.2615031 C11.9783438,12.2615031 11.5505907,12.4385573 11.2353124,12.7539518 C10.9200471,13.0692171 10.7428637,13.496854 10.7428637,13.9427503 C10.7428637,14.3886466 10.9200439,14.8163028 11.2353124,15.1316779 C11.5505778,15.4469432 11.9783438,15.6241266 12.42424,15.6241266 C12.8701363,15.6241266 13.2977926,15.4469464 13.6130385,15.1316779 C13.9283038,14.8162866 14.1054872,14.3886466 14.1054872,13.9427503 L14.1054872,13.9427503 Z M11.465944,13.9427503 C11.465944,13.6886456 11.5669551,13.444878 11.7466566,13.2651894 C11.926358,13.0854879 12.1699868,12.9846027 12.4242174,12.9846027 C12.6783222,12.9846027 12.9219606,13.0854879 13.1016492,13.2651894 C13.2813507,13.4448909 13.3823618,13.6886488 13.3823618,13.9427503 C13.3823618,14.1968518 13.2813507,14.4406226 13.1016492,14.6203112 C12.9219477,14.7999997 12.6783189,14.9008978 12.4242174,14.9008978 C12.1699868,14.9008978 11.9263451,14.8000127 11.7466566,14.6203112 C11.566968,14.4406097 11.465944,14.1968518 11.465944,13.9427503 L11.465944,13.9427503 Z" id="Shape"></path>
                <path d="M15.1902045,2.04701758 L3.38486492,2.04701758 L3.33063874,1.72166697 L3.33051261,1.72166697 C3.2694779,1.34272616 3.08939546,0.99303397 2.81636954,0.723275117 C2.54334362,0.453516263 2.19162405,0.277604823 1.81194072,0.221109132 L0.419854614,0.00407851379 C0.220227897,-0.0258086752 0.0341020358,0.111772214 0.00407861147,0.311524836 C-0.0258085776,0.511151553 0.111772312,0.697277414 0.311399029,0.727300838 L1.70348514,0.926172127 C1.93047514,0.961735358 2.14030982,1.06829269 2.30272686,1.23084532 C2.46515036,1.39326882 2.57183682,1.6031035 2.60740005,1.83008704 L3.83668172,9.60389412 L3.83680782,9.60389412 C3.91121103,10.1196836 4.17022925,10.5909223 4.56595735,10.9300255 C4.96168545,11.269258 5.46698291,11.4532402 5.98806688,11.4478166 L14.3223112,11.4478166 C14.5220638,11.4478166 14.6839805,11.2860227 14.6839805,11.0862765 C14.6839805,10.8866498 14.5220606,10.7247363 14.3223112,10.7247363 L5.98806688,10.7247363 C5.6424101,10.7243581 5.30834301,10.6001424 5.04629986,10.3745276 C4.78425024,10.1490485 4.611735,9.8371729 4.55992038,9.49532554 L4.46950145,8.95293463 L12.7133527,8.95306073 C13.2324028,8.95091692 13.733794,8.76427795 14.1280048,8.42645632 C14.5220864,8.08861209 14.7832579,7.62163485 14.8647086,7.10900909 L15.5517285,2.46280346 C15.567618,2.3580088 15.5367219,2.25144824 15.4671108,2.17137286 C15.3975017,2.09129426 15.2962356,2.04589755 15.1901819,2.04703069 L15.1902045,2.04701758 Z M14.1416445,7.00055977 C14.0898137,7.34231027 13.9171758,7.65416649 13.655265,7.87976185 C13.3932154,8.105241 13.0591548,8.22945404 12.7133689,8.22984144 L4.3610459,8.22984144 L3.49330437,2.77009786 L14.7743639,2.77009786 L14.1416445,7.00055977 Z" id="Shape"></path>
            </g>
        </g>
    </g>
</svg>